<?xml version="1.0" encoding="UTF-8"?>
<svg id="_레이어_2" data-name="레이어 2" xmlns="http://www.w3.org/2000/svg" viewBox="0 0 364.69 212.79">
  <defs>
    <style>
      .cls-1 {
        fill: #6161af;
      }

      .cls-1, .cls-2, .cls-3, .cls-4 {
        stroke-width: 0px;
      }

      .cls-2 {
        fill: #ffd4db;
      }

      .cls-3 {
        fill: #dddbfc;
      }

      .cls-4 {
        fill: #539ce5;
      }
    </style>
  </defs>
  <g id="_레이어_1-2" data-name="레이어 1">
    <g>
      <rect class="cls-3" x="157.79" y="-1.31" width="50" height="220" rx="10" ry="10" transform="translate(-29.86 105.96) rotate(-30)"/>
      <path class="cls-4" d="m363.39,14.38C367.08,7.99,362.47,0,355.09,0h-172.39c-7.21,0-11.76,7.62-8.52,13.93l23.84,41.3c1.88,2.4,4.78,3.84,7.88,3.84h22.18c.25,0,.49-.03.74-.05h24.67c7.09,0,11.52,7.68,7.98,13.82l-15.69,27.18v.02s-8.19,14.21-8.19,14.21c-1.43,2.47-1.7,5.39-.85,8.04l24.12,41.78c3.85,5.96,12.72,5.83,16.33-.41L363.39,14.38Z"/>
      <circle class="cls-2" cx="231.08" cy="81.92" r="15"/>
      <path class="cls-1" d="m104.09,49.07c-3.69-6.39-12.91-6.39-16.6,0L1.3,198.36c-3.6,6.24.72,13.99,7.81,14.34h47.69c3.02-.43,5.72-2.22,7.27-4.9l11.09-19.21c.12-.22.22-.44.33-.67l12.34-21.37c3.55-6.14,12.41-6.14,15.96,0l15.69,27.18h.02l8.2,14.21c1.43,2.47,3.82,4.16,6.54,4.76h48.25c7.08-.35,11.41-8.1,7.81-14.34L104.09,49.07Z"/>
    </g>
  </g>
</svg>